<svg xmlns="http://www.w3.org/2000/svg" width="480" height="260" viewBox="0 0 480 260">
  <rect width="478" height="258" x="1" y="1" rx="4.5" fill="#0d1117" stroke="#30363d"/>
  <text x="20" y="28" fill="#58a6ff" font-size="14" font-weight="700" font-family="Arial, Helvetica, sans-serif">
    Model Usage
  </text>
  <g font-family="Arial, Helvetica, sans-serif">
    <path d="M 120.0 60.0 A 70 70 0 0 1 156.4 189.8 L 143.4 168.4 A 45 45 0 0 0 120.0 85.0 Z" fill="#58a6ff"/>
    <path d="M 156.4 189.8 A 70 70 0 0 1 51.5 144.2 L 75.9 139.2 A 45 45 0 0 0 143.4 168.4 Z" fill="#3fb950"/>
    <path d="M 51.5 144.2 A 70 70 0 0 1 101.1 62.6 L 107.9 86.7 A 45 45 0 0 0 75.9 139.2 Z" fill="#d29922"/>
    <path d="M 101.1 62.6 A 70 70 0 0 1 120.0 60.0 L 120.0 85.0 A 45 45 0 0 0 107.9 86.7 Z" fill="#f85149"/>
    <text x="120" y="125" text-anchor="middle" fill="#c9d1d9" font-size="18" font-weight="700">46</text><text x="120" y="142" text-anchor="middle" fill="#8b949e" font-size="10">sessions</text>
    <rect x="260" y="47" width="10" height="10" rx="2" fill="#58a6ff"/><text x="276" y="55" fill="#c9d1d9" font-size="11">gpt-5.3-codex</text><text x="276" y="68" fill="#8b949e" font-size="9">19 (41%)</text>
    <rect x="260" y="69" width="10" height="10" rx="2" fill="#3fb950"/><text x="276" y="77" fill="#c9d1d9" font-size="11">claude-opus-4-6</text><text x="276" y="90" fill="#8b949e" font-size="9">14 (30%)</text>
    <rect x="260" y="91" width="10" height="10" rx="2" fill="#d29922"/><text x="276" y="99" fill="#c9d1d9" font-size="11">gpt-5.4</text><text x="276" y="112" fill="#8b949e" font-size="9">11 (24%)</text>
    <rect x="260" y="113" width="10" height="10" rx="2" fill="#f85149"/><text x="276" y="121" fill="#c9d1d9" font-size="11">gemini-3.1-pro</text><text x="276" y="134" fill="#8b949e" font-size="9">2 (4%)</text>
  </g>
</svg>