<svg xmlns="http://www.w3.org/2000/svg" width="495" height="200" viewBox="0 0 495 200">
  <rect width="493" height="198" x="1" y="1" rx="4.5" fill="#0d1117" stroke="#30363d"/>
  <text x="20" y="28" fill="#58a6ff" font-size="14" font-weight="700" font-family="Arial, Helvetica, sans-serif">
    Activity by Hour
  </text>
  <g font-family="Courier New, Courier, monospace">
    <text x="30" y="48.0" text-anchor="end" fill="#8b949e" font-size="9">11</text>
    <text x="30" y="108.0" text-anchor="end" fill="#8b949e" font-size="9">5</text>
    <text x="30" y="168.0" text-anchor="end" fill="#8b949e" font-size="9">0</text>
    <rect x="35.0" y="45" width="16.4" height="120" rx="2" fill="#21262d"/>
    <rect x="35.0" y="45.0" width="16.4" height="120.0" rx="2" fill="#58a6ff"><title>0:00 — 11 sessions</title></rect>
    <rect x="53.4" y="45" width="16.4" height="120" rx="2" fill="#21262d"/>
    <rect x="53.4" y="154.1" width="16.4" height="10.9" rx="2" fill="#58a6ff"><title>1:00 — 1 sessions</title></rect>
    <rect x="71.8" y="45" width="16.4" height="120" rx="2" fill="#21262d"/>
    <rect x="71.8" y="99.5" width="16.4" height="65.5" rx="2" fill="#58a6ff"><title>2:00 — 6 sessions</title></rect>
    <rect x="90.2" y="45" width="16.4" height="120" rx="2" fill="#21262d"/>
    <rect x="90.2" y="143.2" width="16.4" height="21.8" rx="2" fill="#58a6ff"><title>3:00 — 2 sessions</title></rect>
    <rect x="108.7" y="45" width="16.4" height="120" rx="2" fill="#21262d"/>
    <rect x="108.7" y="154.1" width="16.4" height="10.9" rx="2" fill="#58a6ff"><title>4:00 — 1 sessions</title></rect>
    <rect x="127.1" y="45" width="16.4" height="120" rx="2" fill="#21262d"/>
    <rect x="145.5" y="45" width="16.4" height="120" rx="2" fill="#21262d"/>
    <rect x="163.9" y="45" width="16.4" height="120" rx="2" fill="#21262d"/>
    <rect x="182.3" y="45" width="16.4" height="120" rx="2" fill="#21262d"/>
    <rect x="200.8" y="45" width="16.4" height="120" rx="2" fill="#21262d"/>
    <rect x="219.2" y="45" width="16.4" height="120" rx="2" fill="#21262d"/>
    <rect x="237.6" y="45" width="16.4" height="120" rx="2" fill="#21262d"/>
    <rect x="256.0" y="45" width="16.4" height="120" rx="2" fill="#21262d"/>
    <rect x="274.4" y="45" width="16.4" height="120" rx="2" fill="#21262d"/>
    <rect x="274.4" y="121.4" width="16.4" height="43.6" rx="2" fill="#58a6ff"><title>13:00 — 4 sessions</title></rect>
    <rect x="292.8" y="45" width="16.4" height="120" rx="2" fill="#21262d"/>
    <rect x="292.8" y="110.5" width="16.4" height="54.5" rx="2" fill="#58a6ff"><title>14:00 — 5 sessions</title></rect>
    <rect x="311.2" y="45" width="16.4" height="120" rx="2" fill="#21262d"/>
    <rect x="311.2" y="154.1" width="16.4" height="10.9" rx="2" fill="#58a6ff"><title>15:00 — 1 sessions</title></rect>
    <rect x="329.7" y="45" width="16.4" height="120" rx="2" fill="#21262d"/>
    <rect x="329.7" y="121.4" width="16.4" height="43.6" rx="2" fill="#58a6ff"><title>16:00 — 4 sessions</title></rect>
    <rect x="348.1" y="45" width="16.4" height="120" rx="2" fill="#21262d"/>
    <rect x="348.1" y="143.2" width="16.4" height="21.8" rx="2" fill="#58a6ff"><title>17:00 — 2 sessions</title></rect>
    <rect x="366.5" y="45" width="16.4" height="120" rx="2" fill="#21262d"/>
    <rect x="384.9" y="45" width="16.4" height="120" rx="2" fill="#21262d"/>
    <rect x="384.9" y="154.1" width="16.4" height="10.9" rx="2" fill="#58a6ff"><title>19:00 — 1 sessions</title></rect>
    <rect x="403.3" y="45" width="16.4" height="120" rx="2" fill="#21262d"/>
    <rect x="421.8" y="45" width="16.4" height="120" rx="2" fill="#21262d"/>
    <rect x="440.2" y="45" width="16.4" height="120" rx="2" fill="#21262d"/>
    <rect x="440.2" y="132.3" width="16.4" height="32.7" rx="2" fill="#58a6ff"><title>22:00 — 3 sessions</title></rect>
    <rect x="458.6" y="45" width="16.4" height="120" rx="2" fill="#21262d"/>
    <rect x="458.6" y="110.5" width="16.4" height="54.5" rx="2" fill="#58a6ff"><title>23:00 — 5 sessions</title></rect>
    <text x="43.2" y="179" text-anchor="middle" fill="#8b949e" font-size="9">0:00</text>
    <text x="98.5" y="179" text-anchor="middle" fill="#8b949e" font-size="9">3:00</text>
    <text x="153.7" y="179" text-anchor="middle" fill="#8b949e" font-size="9">6:00</text>
    <text x="209.0" y="179" text-anchor="middle" fill="#8b949e" font-size="9">9:00</text>
    <text x="264.2" y="179" text-anchor="middle" fill="#8b949e" font-size="9">12:00</text>
    <text x="319.5" y="179" text-anchor="middle" fill="#8b949e" font-size="9">15:00</text>
    <text x="374.7" y="179" text-anchor="middle" fill="#8b949e" font-size="9">18:00</text>
    <text x="430.0" y="179" text-anchor="middle" fill="#8b949e" font-size="9">21:00</text>
  </g>
</svg>