<svg xmlns="http://www.w3.org/2000/svg" width="739" height="151" viewBox="0 0 739 151">
  <rect width="737" height="149" x="1" y="1" rx="4.5" fill="#0d1117" stroke="#30363d"/>
  <g font-family="Arial, Helvetica, sans-serif">
    <text x="35" y="20" fill="#8b949e" font-size="10">Mar</text>
    <text x="87" y="20" fill="#8b949e" font-size="10">Apr</text>
    <text x="139" y="20" fill="#8b949e" font-size="10">May</text>
    <text x="191" y="20" fill="#8b949e" font-size="10">Jun</text>
    <text x="256" y="20" fill="#8b949e" font-size="10">Jul</text>
    <text x="308" y="20" fill="#8b949e" font-size="10">Aug</text>
    <text x="360" y="20" fill="#8b949e" font-size="10">Sep</text>
    <text x="425" y="20" fill="#8b949e" font-size="10">Oct</text>
    <text x="477" y="20" fill="#8b949e" font-size="10">Nov</text>
    <text x="529" y="20" fill="#8b949e" font-size="10">Dec</text>
    <text x="594" y="20" fill="#8b949e" font-size="10">Jan</text>
    <text x="646" y="20" fill="#8b949e" font-size="10">Feb</text>
    <text x="698" y="20" fill="#8b949e" font-size="10">Mar</text>
    <text x="5" y="39" fill="#8b949e" font-size="9">Mon</text>
    <text x="5" y="65" fill="#8b949e" font-size="9">Wed</text>
    <text x="5" y="91" fill="#8b949e" font-size="9">Fri</text>
    <rect x="35" y="30" width="11" height="11" rx="2" fill="#161b22"><title>2025-03-10: 0 sessions</title></rect>
    <rect x="35" y="43" width="11" height="11" rx="2" fill="#161b22"><title>2025-03-11: 0 sessions</title></rect>
    <rect x="35" y="56" width="11" height="11" rx="2" fill="#161b22"><title>2025-03-12: 0 sessions</title></rect>
    <rect x="35" y="69" width="11" height="11" rx="2" fill="#161b22"><title>2025-03-13: 0 sessions</title></rect>
    <rect x="35" y="82" width="11" height="11" rx="2" fill="#161b22"><title>2025-03-14: 0 sessions</title></rect>
    <rect x="35" y="95" width="11" height="11" rx="2" fill="#161b22"><title>2025-03-15: 0 sessions</title></rect>
    <rect x="35" y="108" width="11" height="11" rx="2" fill="#161b22"><title>2025-03-16: 0 sessions</title></rect>
    <rect x="48" y="30" width="11" height="11" rx="2" fill="#161b22"><title>2025-03-17: 0 sessions</title></rect>
    <rect x="48" y="43" width="11" height="11" rx="2" fill="#161b22"><title>2025-03-18: 0 sessions</title></rect>
    <rect x="48" y="56" width="11" height="11" rx="2" fill="#161b22"><title>2025-03-19: 0 sessions</title></rect>
    <rect x="48" y="69" width="11" height="11" rx="2" fill="#161b22"><title>2025-03-20: 0 sessions</title></rect>
    <rect x="48" y="82" width="11" height="11" rx="2" fill="#161b22"><title>2025-03-21: 0 sessions</title></rect>
    <rect x="48" y="95" width="11" height="11" rx="2" fill="#161b22"><title>2025-03-22: 0 sessions</title></rect>
    <rect x="48" y="108" width="11" height="11" rx="2" fill="#161b22"><title>2025-03-23: 0 sessions</title></rect>
    <rect x="61" y="30" width="11" height="11" rx="2" fill="#161b22"><title>2025-03-24: 0 sessions</title></rect>
    <rect x="61" y="43" width="11" height="11" rx="2" fill="#161b22"><title>2025-03-25: 0 sessions</title></rect>
    <rect x="61" y="56" width="11" height="11" rx="2" fill="#161b22"><title>2025-03-26: 0 sessions</title></rect>
    <rect x="61" y="69" width="11" height="11" rx="2" fill="#161b22"><title>2025-03-27: 0 sessions</title></rect>
    <rect x="61" y="82" width="11" height="11" rx="2" fill="#161b22"><title>2025-03-28: 0 sessions</title></rect>
    <rect x="61" y="95" width="11" height="11" rx="2" fill="#161b22"><title>2025-03-29: 0 sessions</title></rect>
    <rect x="61" y="108" width="11" height="11" rx="2" fill="#161b22"><title>2025-03-30: 0 sessions</title></rect>
    <rect x="74" y="30" width="11" height="11" rx="2" fill="#161b22"><title>2025-03-31: 0 sessions</title></rect>
    <rect x="74" y="43" width="11" height="11" rx="2" fill="#161b22"><title>2025-04-01: 0 sessions</title></rect>
    <rect x="74" y="56" width="11" height="11" rx="2" fill="#161b22"><title>2025-04-02: 0 sessions</title></rect>
    <rect x="74" y="69" width="11" height="11" rx="2" fill="#161b22"><title>2025-04-03: 0 sessions</title></rect>
    <rect x="74" y="82" width="11" height="11" rx="2" fill="#161b22"><title>2025-04-04: 0 sessions</title></rect>
    <rect x="74" y="95" width="11" height="11" rx="2" fill="#161b22"><title>2025-04-05: 0 sessions</title></rect>
    <rect x="74" y="108" width="11" height="11" rx="2" fill="#161b22"><title>2025-04-06: 0 sessions</title></rect>
    <rect x="87" y="30" width="11" height="11" rx="2" fill="#161b22"><title>2025-04-07: 0 sessions</title></rect>
    <rect x="87" y="43" width="11" height="11" rx="2" fill="#161b22"><title>2025-04-08: 0 sessions</title></rect>
    <rect x="87" y="56" width="11" height="11" rx="2" fill="#161b22"><title>2025-04-09: 0 sessions</title></rect>
    <rect x="87" y="69" width="11" height="11" rx="2" fill="#161b22"><title>2025-04-10: 0 sessions</title></rect>
    <rect x="87" y="82" width="11" height="11" rx="2" fill="#161b22"><title>2025-04-11: 0 sessions</title></rect>
    <rect x="87" y="95" width="11" height="11" rx="2" fill="#161b22"><title>2025-04-12: 0 sessions</title></rect>
    <rect x="87" y="108" width="11" height="11" rx="2" fill="#161b22"><title>2025-04-13: 0 sessions</title></rect>
    <rect x="100" y="30" width="11" height="11" rx="2" fill="#161b22"><title>2025-04-14: 0 sessions</title></rect>
    <rect x="100" y="43" width="11" height="11" rx="2" fill="#161b22"><title>2025-04-15: 0 sessions</title></rect>
    <rect x="100" y="56" width="11" height="11" rx="2" fill="#161b22"><title>2025-04-16: 0 sessions</title></rect>
    <rect x="100" y="69" width="11" height="11" rx="2" fill="#161b22"><title>2025-04-17: 0 sessions</title></rect>
    <rect x="100" y="82" width="11" height="11" rx="2" fill="#161b22"><title>2025-04-18: 0 sessions</title></rect>
    <rect x="100" y="95" width="11" height="11" rx="2" fill="#161b22"><title>2025-04-19: 0 sessions</title></rect>
    <rect x="100" y="108" width="11" height="11" rx="2" fill="#161b22"><title>2025-04-20: 0 sessions</title></rect>
    <rect x="113" y="30" width="11" height="11" rx="2" fill="#161b22"><title>2025-04-21: 0 sessions</title></rect>
    <rect x="113" y="43" width="11" height="11" rx="2" fill="#161b22"><title>2025-04-22: 0 sessions</title></rect>
    <rect x="113" y="56" width="11" height="11" rx="2" fill="#161b22"><title>2025-04-23: 0 sessions</title></rect>
    <rect x="113" y="69" width="11" height="11" rx="2" fill="#161b22"><title>2025-04-24: 0 sessions</title></rect>
    <rect x="113" y="82" width="11" height="11" rx="2" fill="#161b22"><title>2025-04-25: 0 sessions</title></rect>
    <rect x="113" y="95" width="11" height="11" rx="2" fill="#161b22"><title>2025-04-26: 0 sessions</title></rect>
    <rect x="113" y="108" width="11" height="11" rx="2" fill="#161b22"><title>2025-04-27: 0 sessions</title></rect>
    <rect x="126" y="30" width="11" height="11" rx="2" fill="#161b22"><title>2025-04-28: 0 sessions</title></rect>
    <rect x="126" y="43" width="11" height="11" rx="2" fill="#161b22"><title>2025-04-29: 0 sessions</title></rect>
    <rect x="126" y="56" width="11" height="11" rx="2" fill="#161b22"><title>2025-04-30: 0 sessions</title></rect>
    <rect x="126" y="69" width="11" height="11" rx="2" fill="#161b22"><title>2025-05-01: 0 sessions</title></rect>
    <rect x="126" y="82" width="11" height="11" rx="2" fill="#161b22"><title>2025-05-02: 0 sessions</title></rect>
    <rect x="126" y="95" width="11" height="11" rx="2" fill="#161b22"><title>2025-05-03: 0 sessions</title></rect>
    <rect x="126" y="108" width="11" height="11" rx="2" fill="#161b22"><title>2025-05-04: 0 sessions</title></rect>
    <rect x="139" y="30" width="11" height="11" rx="2" fill="#161b22"><title>2025-05-05: 0 sessions</title></rect>
    <rect x="139" y="43" width="11" height="11" rx="2" fill="#161b22"><title>2025-05-06: 0 sessions</title></rect>
    <rect x="139" y="56" width="11" height="11" rx="2" fill="#161b22"><title>2025-05-07: 0 sessions</title></rect>
    <rect x="139" y="69" width="11" height="11" rx="2" fill="#161b22"><title>2025-05-08: 0 sessions</title></rect>
    <rect x="139" y="82" width="11" height="11" rx="2" fill="#161b22"><title>2025-05-09: 0 sessions</title></rect>
    <rect x="139" y="95" width="11" height="11" rx="2" fill="#161b22"><title>2025-05-10: 0 sessions</title></rect>
    <rect x="139" y="108" width="11" height="11" rx="2" fill="#161b22"><title>2025-05-11: 0 sessions</title></rect>
    <rect x="152" y="30" width="11" height="11" rx="2" fill="#161b22"><title>2025-05-12: 0 sessions</title></rect>
    <rect x="152" y="43" width="11" height="11" rx="2" fill="#161b22"><title>2025-05-13: 0 sessions</title></rect>
    <rect x="152" y="56" width="11" height="11" rx="2" fill="#161b22"><title>2025-05-14: 0 sessions</title></rect>
    <rect x="152" y="69" width="11" height="11" rx="2" fill="#161b22"><title>2025-05-15: 0 sessions</title></rect>
    <rect x="152" y="82" width="11" height="11" rx="2" fill="#161b22"><title>2025-05-16: 0 sessions</title></rect>
    <rect x="152" y="95" width="11" height="11" rx="2" fill="#161b22"><title>2025-05-17: 0 sessions</title></rect>
    <rect x="152" y="108" width="11" height="11" rx="2" fill="#161b22"><title>2025-05-18: 0 sessions</title></rect>
    <rect x="165" y="30" width="11" height="11" rx="2" fill="#161b22"><title>2025-05-19: 0 sessions</title></rect>
    <rect x="165" y="43" width="11" height="11" rx="2" fill="#161b22"><title>2025-05-20: 0 sessions</title></rect>
    <rect x="165" y="56" width="11" height="11" rx="2" fill="#161b22"><title>2025-05-21: 0 sessions</title></rect>
    <rect x="165" y="69" width="11" height="11" rx="2" fill="#161b22"><title>2025-05-22: 0 sessions</title></rect>
    <rect x="165" y="82" width="11" height="11" rx="2" fill="#161b22"><title>2025-05-23: 0 sessions</title></rect>
    <rect x="165" y="95" width="11" height="11" rx="2" fill="#161b22"><title>2025-05-24: 0 sessions</title></rect>
    <rect x="165" y="108" width="11" height="11" rx="2" fill="#161b22"><title>2025-05-25: 0 sessions</title></rect>
    <rect x="178" y="30" width="11" height="11" rx="2" fill="#161b22"><title>2025-05-26: 0 sessions</title></rect>
    <rect x="178" y="43" width="11" height="11" rx="2" fill="#161b22"><title>2025-05-27: 0 sessions</title></rect>
    <rect x="178" y="56" width="11" height="11" rx="2" fill="#161b22"><title>2025-05-28: 0 sessions</title></rect>
    <rect x="178" y="69" width="11" height="11" rx="2" fill="#161b22"><title>2025-05-29: 0 sessions</title></rect>
    <rect x="178" y="82" width="11" height="11" rx="2" fill="#161b22"><title>2025-05-30: 0 sessions</title></rect>
    <rect x="178" y="95" width="11" height="11" rx="2" fill="#161b22"><title>2025-05-31: 0 sessions</title></rect>
    <rect x="178" y="108" width="11" height="11" rx="2" fill="#161b22"><title>2025-06-01: 0 sessions</title></rect>
    <rect x="191" y="30" width="11" height="11" rx="2" fill="#161b22"><title>2025-06-02: 0 sessions</title></rect>
    <rect x="191" y="43" width="11" height="11" rx="2" fill="#161b22"><title>2025-06-03: 0 sessions</title></rect>
    <rect x="191" y="56" width="11" height="11" rx="2" fill="#161b22"><title>2025-06-04: 0 sessions</title></rect>
    <rect x="191" y="69" width="11" height="11" rx="2" fill="#161b22"><title>2025-06-05: 0 sessions</title></rect>
    <rect x="191" y="82" width="11" height="11" rx="2" fill="#161b22"><title>2025-06-06: 0 sessions</title></rect>
    <rect x="191" y="95" width="11" height="11" rx="2" fill="#161b22"><title>2025-06-07: 0 sessions</title></rect>
    <rect x="191" y="108" width="11" height="11" rx="2" fill="#161b22"><title>2025-06-08: 0 sessions</title></rect>
    <rect x="204" y="30" width="11" height="11" rx="2" fill="#161b22"><title>2025-06-09: 0 sessions</title></rect>
    <rect x="204" y="43" width="11" height="11" rx="2" fill="#161b22"><title>2025-06-10: 0 sessions</title></rect>
    <rect x="204" y="56" width="11" height="11" rx="2" fill="#161b22"><title>2025-06-11: 0 sessions</title></rect>
    <rect x="204" y="69" width="11" height="11" rx="2" fill="#161b22"><title>2025-06-12: 0 sessions</title></rect>
    <rect x="204" y="82" width="11" height="11" rx="2" fill="#161b22"><title>2025-06-13: 0 sessions</title></rect>
    <rect x="204" y="95" width="11" height="11" rx="2" fill="#161b22"><title>2025-06-14: 0 sessions</title></rect>
    <rect x="204" y="108" width="11" height="11" rx="2" fill="#161b22"><title>2025-06-15: 0 sessions</title></rect>
    <rect x="217" y="30" width="11" height="11" rx="2" fill="#161b22"><title>2025-06-16: 0 sessions</title></rect>
    <rect x="217" y="43" width="11" height="11" rx="2" fill="#161b22"><title>2025-06-17: 0 sessions</title></rect>
    <rect x="217" y="56" width="11" height="11" rx="2" fill="#161b22"><title>2025-06-18: 0 sessions</title></rect>
    <rect x="217" y="69" width="11" height="11" rx="2" fill="#161b22"><title>2025-06-19: 0 sessions</title></rect>
    <rect x="217" y="82" width="11" height="11" rx="2" fill="#161b22"><title>2025-06-20: 0 sessions</title></rect>
    <rect x="217" y="95" width="11" height="11" rx="2" fill="#161b22"><title>2025-06-21: 0 sessions</title></rect>
    <rect x="217" y="108" width="11" height="11" rx="2" fill="#161b22"><title>2025-06-22: 0 sessions</title></rect>
    <rect x="230" y="30" width="11" height="11" rx="2" fill="#161b22"><title>2025-06-23: 0 sessions</title></rect>
    <rect x="230" y="43" width="11" height="11" rx="2" fill="#161b22"><title>2025-06-24: 0 sessions</title></rect>
    <rect x="230" y="56" width="11" height="11" rx="2" fill="#161b22"><title>2025-06-25: 0 sessions</title></rect>
    <rect x="230" y="69" width="11" height="11" rx="2" fill="#161b22"><title>2025-06-26: 0 sessions</title></rect>
    <rect x="230" y="82" width="11" height="11" rx="2" fill="#161b22"><title>2025-06-27: 0 sessions</title></rect>
    <rect x="230" y="95" width="11" height="11" rx="2" fill="#161b22"><title>2025-06-28: 0 sessions</title></rect>
    <rect x="230" y="108" width="11" height="11" rx="2" fill="#161b22"><title>2025-06-29: 0 sessions</title></rect>
    <rect x="243" y="30" width="11" height="11" rx="2" fill="#161b22"><title>2025-06-30: 0 sessions</title></rect>
    <rect x="243" y="43" width="11" height="11" rx="2" fill="#161b22"><title>2025-07-01: 0 sessions</title></rect>
    <rect x="243" y="56" width="11" height="11" rx="2" fill="#161b22"><title>2025-07-02: 0 sessions</title></rect>
    <rect x="243" y="69" width="11" height="11" rx="2" fill="#161b22"><title>2025-07-03: 0 sessions</title></rect>
    <rect x="243" y="82" width="11" height="11" rx="2" fill="#161b22"><title>2025-07-04: 0 sessions</title></rect>
    <rect x="243" y="95" width="11" height="11" rx="2" fill="#161b22"><title>2025-07-05: 0 sessions</title></rect>
    <rect x="243" y="108" width="11" height="11" rx="2" fill="#161b22"><title>2025-07-06: 0 sessions</title></rect>
    <rect x="256" y="30" width="11" height="11" rx="2" fill="#161b22"><title>2025-07-07: 0 sessions</title></rect>
    <rect x="256" y="43" width="11" height="11" rx="2" fill="#161b22"><title>2025-07-08: 0 sessions</title></rect>
    <rect x="256" y="56" width="11" height="11" rx="2" fill="#161b22"><title>2025-07-09: 0 sessions</title></rect>
    <rect x="256" y="69" width="11" height="11" rx="2" fill="#161b22"><title>2025-07-10: 0 sessions</title></rect>
    <rect x="256" y="82" width="11" height="11" rx="2" fill="#161b22"><title>2025-07-11: 0 sessions</title></rect>
    <rect x="256" y="95" width="11" height="11" rx="2" fill="#161b22"><title>2025-07-12: 0 sessions</title></rect>
    <rect x="256" y="108" width="11" height="11" rx="2" fill="#161b22"><title>2025-07-13: 0 sessions</title></rect>
    <rect x="269" y="30" width="11" height="11" rx="2" fill="#161b22"><title>2025-07-14: 0 sessions</title></rect>
    <rect x="269" y="43" width="11" height="11" rx="2" fill="#161b22"><title>2025-07-15: 0 sessions</title></rect>
    <rect x="269" y="56" width="11" height="11" rx="2" fill="#161b22"><title>2025-07-16: 0 sessions</title></rect>
    <rect x="269" y="69" width="11" height="11" rx="2" fill="#161b22"><title>2025-07-17: 0 sessions</title></rect>
    <rect x="269" y="82" width="11" height="11" rx="2" fill="#161b22"><title>2025-07-18: 0 sessions</title></rect>
    <rect x="269" y="95" width="11" height="11" rx="2" fill="#161b22"><title>2025-07-19: 0 sessions</title></rect>
    <rect x="269" y="108" width="11" height="11" rx="2" fill="#161b22"><title>2025-07-20: 0 sessions</title></rect>
    <rect x="282" y="30" width="11" height="11" rx="2" fill="#161b22"><title>2025-07-21: 0 sessions</title></rect>
    <rect x="282" y="43" width="11" height="11" rx="2" fill="#161b22"><title>2025-07-22: 0 sessions</title></rect>
    <rect x="282" y="56" width="11" height="11" rx="2" fill="#161b22"><title>2025-07-23: 0 sessions</title></rect>
    <rect x="282" y="69" width="11" height="11" rx="2" fill="#161b22"><title>2025-07-24: 0 sessions</title></rect>
    <rect x="282" y="82" width="11" height="11" rx="2" fill="#161b22"><title>2025-07-25: 0 sessions</title></rect>
    <rect x="282" y="95" width="11" height="11" rx="2" fill="#161b22"><title>2025-07-26: 0 sessions</title></rect>
    <rect x="282" y="108" width="11" height="11" rx="2" fill="#161b22"><title>2025-07-27: 0 sessions</title></rect>
    <rect x="295" y="30" width="11" height="11" rx="2" fill="#161b22"><title>2025-07-28: 0 sessions</title></rect>
    <rect x="295" y="43" width="11" height="11" rx="2" fill="#161b22"><title>2025-07-29: 0 sessions</title></rect>
    <rect x="295" y="56" width="11" height="11" rx="2" fill="#161b22"><title>2025-07-30: 0 sessions</title></rect>
    <rect x="295" y="69" width="11" height="11" rx="2" fill="#161b22"><title>2025-07-31: 0 sessions</title></rect>
    <rect x="295" y="82" width="11" height="11" rx="2" fill="#161b22"><title>2025-08-01: 0 sessions</title></rect>
    <rect x="295" y="95" width="11" height="11" rx="2" fill="#161b22"><title>2025-08-02: 0 sessions</title></rect>
    <rect x="295" y="108" width="11" height="11" rx="2" fill="#161b22"><title>2025-08-03: 0 sessions</title></rect>
    <rect x="308" y="30" width="11" height="11" rx="2" fill="#161b22"><title>2025-08-04: 0 sessions</title></rect>
    <rect x="308" y="43" width="11" height="11" rx="2" fill="#161b22"><title>2025-08-05: 0 sessions</title></rect>
    <rect x="308" y="56" width="11" height="11" rx="2" fill="#161b22"><title>2025-08-06: 0 sessions</title></rect>
    <rect x="308" y="69" width="11" height="11" rx="2" fill="#161b22"><title>2025-08-07: 0 sessions</title></rect>
    <rect x="308" y="82" width="11" height="11" rx="2" fill="#161b22"><title>2025-08-08: 0 sessions</title></rect>
    <rect x="308" y="95" width="11" height="11" rx="2" fill="#161b22"><title>2025-08-09: 0 sessions</title></rect>
    <rect x="308" y="108" width="11" height="11" rx="2" fill="#161b22"><title>2025-08-10: 0 sessions</title></rect>
    <rect x="321" y="30" width="11" height="11" rx="2" fill="#161b22"><title>2025-08-11: 0 sessions</title></rect>
    <rect x="321" y="43" width="11" height="11" rx="2" fill="#161b22"><title>2025-08-12: 0 sessions</title></rect>
    <rect x="321" y="56" width="11" height="11" rx="2" fill="#161b22"><title>2025-08-13: 0 sessions</title></rect>
    <rect x="321" y="69" width="11" height="11" rx="2" fill="#161b22"><title>2025-08-14: 0 sessions</title></rect>
    <rect x="321" y="82" width="11" height="11" rx="2" fill="#161b22"><title>2025-08-15: 0 sessions</title></rect>
    <rect x="321" y="95" width="11" height="11" rx="2" fill="#161b22"><title>2025-08-16: 0 sessions</title></rect>
    <rect x="321" y="108" width="11" height="11" rx="2" fill="#161b22"><title>2025-08-17: 0 sessions</title></rect>
    <rect x="334" y="30" width="11" height="11" rx="2" fill="#161b22"><title>2025-08-18: 0 sessions</title></rect>
    <rect x="334" y="43" width="11" height="11" rx="2" fill="#161b22"><title>2025-08-19: 0 sessions</title></rect>
    <rect x="334" y="56" width="11" height="11" rx="2" fill="#161b22"><title>2025-08-20: 0 sessions</title></rect>
    <rect x="334" y="69" width="11" height="11" rx="2" fill="#161b22"><title>2025-08-21: 0 sessions</title></rect>
    <rect x="334" y="82" width="11" height="11" rx="2" fill="#161b22"><title>2025-08-22: 0 sessions</title></rect>
    <rect x="334" y="95" width="11" height="11" rx="2" fill="#161b22"><title>2025-08-23: 0 sessions</title></rect>
    <rect x="334" y="108" width="11" height="11" rx="2" fill="#161b22"><title>2025-08-24: 0 sessions</title></rect>
    <rect x="347" y="30" width="11" height="11" rx="2" fill="#161b22"><title>2025-08-25: 0 sessions</title></rect>
    <rect x="347" y="43" width="11" height="11" rx="2" fill="#161b22"><title>2025-08-26: 0 sessions</title></rect>
    <rect x="347" y="56" width="11" height="11" rx="2" fill="#161b22"><title>2025-08-27: 0 sessions</title></rect>
    <rect x="347" y="69" width="11" height="11" rx="2" fill="#161b22"><title>2025-08-28: 0 sessions</title></rect>
    <rect x="347" y="82" width="11" height="11" rx="2" fill="#161b22"><title>2025-08-29: 0 sessions</title></rect>
    <rect x="347" y="95" width="11" height="11" rx="2" fill="#161b22"><title>2025-08-30: 0 sessions</title></rect>
    <rect x="347" y="108" width="11" height="11" rx="2" fill="#161b22"><title>2025-08-31: 0 sessions</title></rect>
    <rect x="360" y="30" width="11" height="11" rx="2" fill="#161b22"><title>2025-09-01: 0 sessions</title></rect>
    <rect x="360" y="43" width="11" height="11" rx="2" fill="#161b22"><title>2025-09-02: 0 sessions</title></rect>
    <rect x="360" y="56" width="11" height="11" rx="2" fill="#161b22"><title>2025-09-03: 0 sessions</title></rect>
    <rect x="360" y="69" width="11" height="11" rx="2" fill="#161b22"><title>2025-09-04: 0 sessions</title></rect>
    <rect x="360" y="82" width="11" height="11" rx="2" fill="#161b22"><title>2025-09-05: 0 sessions</title></rect>
    <rect x="360" y="95" width="11" height="11" rx="2" fill="#161b22"><title>2025-09-06: 0 sessions</title></rect>
    <rect x="360" y="108" width="11" height="11" rx="2" fill="#161b22"><title>2025-09-07: 0 sessions</title></rect>
    <rect x="373" y="30" width="11" height="11" rx="2" fill="#161b22"><title>2025-09-08: 0 sessions</title></rect>
    <rect x="373" y="43" width="11" height="11" rx="2" fill="#161b22"><title>2025-09-09: 0 sessions</title></rect>
    <rect x="373" y="56" width="11" height="11" rx="2" fill="#161b22"><title>2025-09-10: 0 sessions</title></rect>
    <rect x="373" y="69" width="11" height="11" rx="2" fill="#161b22"><title>2025-09-11: 0 sessions</title></rect>
    <rect x="373" y="82" width="11" height="11" rx="2" fill="#161b22"><title>2025-09-12: 0 sessions</title></rect>
    <rect x="373" y="95" width="11" height="11" rx="2" fill="#161b22"><title>2025-09-13: 0 sessions</title></rect>
    <rect x="373" y="108" width="11" height="11" rx="2" fill="#161b22"><title>2025-09-14: 0 sessions</title></rect>
    <rect x="386" y="30" width="11" height="11" rx="2" fill="#161b22"><title>2025-09-15: 0 sessions</title></rect>
    <rect x="386" y="43" width="11" height="11" rx="2" fill="#161b22"><title>2025-09-16: 0 sessions</title></rect>
    <rect x="386" y="56" width="11" height="11" rx="2" fill="#161b22"><title>2025-09-17: 0 sessions</title></rect>
    <rect x="386" y="69" width="11" height="11" rx="2" fill="#161b22"><title>2025-09-18: 0 sessions</title></rect>
    <rect x="386" y="82" width="11" height="11" rx="2" fill="#161b22"><title>2025-09-19: 0 sessions</title></rect>
    <rect x="386" y="95" width="11" height="11" rx="2" fill="#161b22"><title>2025-09-20: 0 sessions</title></rect>
    <rect x="386" y="108" width="11" height="11" rx="2" fill="#161b22"><title>2025-09-21: 0 sessions</title></rect>
    <rect x="399" y="30" width="11" height="11" rx="2" fill="#161b22"><title>2025-09-22: 0 sessions</title></rect>
    <rect x="399" y="43" width="11" height="11" rx="2" fill="#161b22"><title>2025-09-23: 0 sessions</title></rect>
    <rect x="399" y="56" width="11" height="11" rx="2" fill="#161b22"><title>2025-09-24: 0 sessions</title></rect>
    <rect x="399" y="69" width="11" height="11" rx="2" fill="#161b22"><title>2025-09-25: 0 sessions</title></rect>
    <rect x="399" y="82" width="11" height="11" rx="2" fill="#161b22"><title>2025-09-26: 0 sessions</title></rect>
    <rect x="399" y="95" width="11" height="11" rx="2" fill="#161b22"><title>2025-09-27: 0 sessions</title></rect>
    <rect x="399" y="108" width="11" height="11" rx="2" fill="#161b22"><title>2025-09-28: 0 sessions</title></rect>
    <rect x="412" y="30" width="11" height="11" rx="2" fill="#161b22"><title>2025-09-29: 0 sessions</title></rect>
    <rect x="412" y="43" width="11" height="11" rx="2" fill="#161b22"><title>2025-09-30: 0 sessions</title></rect>
    <rect x="412" y="56" width="11" height="11" rx="2" fill="#161b22"><title>2025-10-01: 0 sessions</title></rect>
    <rect x="412" y="69" width="11" height="11" rx="2" fill="#161b22"><title>2025-10-02: 0 sessions</title></rect>
    <rect x="412" y="82" width="11" height="11" rx="2" fill="#161b22"><title>2025-10-03: 0 sessions</title></rect>
    <rect x="412" y="95" width="11" height="11" rx="2" fill="#161b22"><title>2025-10-04: 0 sessions</title></rect>
    <rect x="412" y="108" width="11" height="11" rx="2" fill="#161b22"><title>2025-10-05: 0 sessions</title></rect>
    <rect x="425" y="30" width="11" height="11" rx="2" fill="#161b22"><title>2025-10-06: 0 sessions</title></rect>
    <rect x="425" y="43" width="11" height="11" rx="2" fill="#161b22"><title>2025-10-07: 0 sessions</title></rect>
    <rect x="425" y="56" width="11" height="11" rx="2" fill="#161b22"><title>2025-10-08: 0 sessions</title></rect>
    <rect x="425" y="69" width="11" height="11" rx="2" fill="#161b22"><title>2025-10-09: 0 sessions</title></rect>
    <rect x="425" y="82" width="11" height="11" rx="2" fill="#161b22"><title>2025-10-10: 0 sessions</title></rect>
    <rect x="425" y="95" width="11" height="11" rx="2" fill="#161b22"><title>2025-10-11: 0 sessions</title></rect>
    <rect x="425" y="108" width="11" height="11" rx="2" fill="#161b22"><title>2025-10-12: 0 sessions</title></rect>
    <rect x="438" y="30" width="11" height="11" rx="2" fill="#161b22"><title>2025-10-13: 0 sessions</title></rect>
    <rect x="438" y="43" width="11" height="11" rx="2" fill="#161b22"><title>2025-10-14: 0 sessions</title></rect>
    <rect x="438" y="56" width="11" height="11" rx="2" fill="#161b22"><title>2025-10-15: 0 sessions</title></rect>
    <rect x="438" y="69" width="11" height="11" rx="2" fill="#161b22"><title>2025-10-16: 0 sessions</title></rect>
    <rect x="438" y="82" width="11" height="11" rx="2" fill="#161b22"><title>2025-10-17: 0 sessions</title></rect>
    <rect x="438" y="95" width="11" height="11" rx="2" fill="#161b22"><title>2025-10-18: 0 sessions</title></rect>
    <rect x="438" y="108" width="11" height="11" rx="2" fill="#161b22"><title>2025-10-19: 0 sessions</title></rect>
    <rect x="451" y="30" width="11" height="11" rx="2" fill="#161b22"><title>2025-10-20: 0 sessions</title></rect>
    <rect x="451" y="43" width="11" height="11" rx="2" fill="#161b22"><title>2025-10-21: 0 sessions</title></rect>
    <rect x="451" y="56" width="11" height="11" rx="2" fill="#161b22"><title>2025-10-22: 0 sessions</title></rect>
    <rect x="451" y="69" width="11" height="11" rx="2" fill="#161b22"><title>2025-10-23: 0 sessions</title></rect>
    <rect x="451" y="82" width="11" height="11" rx="2" fill="#161b22"><title>2025-10-24: 0 sessions</title></rect>
    <rect x="451" y="95" width="11" height="11" rx="2" fill="#161b22"><title>2025-10-25: 0 sessions</title></rect>
    <rect x="451" y="108" width="11" height="11" rx="2" fill="#161b22"><title>2025-10-26: 0 sessions</title></rect>
    <rect x="464" y="30" width="11" height="11" rx="2" fill="#161b22"><title>2025-10-27: 0 sessions</title></rect>
    <rect x="464" y="43" width="11" height="11" rx="2" fill="#161b22"><title>2025-10-28: 0 sessions</title></rect>
    <rect x="464" y="56" width="11" height="11" rx="2" fill="#161b22"><title>2025-10-29: 0 sessions</title></rect>
    <rect x="464" y="69" width="11" height="11" rx="2" fill="#161b22"><title>2025-10-30: 0 sessions</title></rect>
    <rect x="464" y="82" width="11" height="11" rx="2" fill="#161b22"><title>2025-10-31: 0 sessions</title></rect>
    <rect x="464" y="95" width="11" height="11" rx="2" fill="#161b22"><title>2025-11-01: 0 sessions</title></rect>
    <rect x="464" y="108" width="11" height="11" rx="2" fill="#161b22"><title>2025-11-02: 0 sessions</title></rect>
    <rect x="477" y="30" width="11" height="11" rx="2" fill="#161b22"><title>2025-11-03: 0 sessions</title></rect>
    <rect x="477" y="43" width="11" height="11" rx="2" fill="#161b22"><title>2025-11-04: 0 sessions</title></rect>
    <rect x="477" y="56" width="11" height="11" rx="2" fill="#161b22"><title>2025-11-05: 0 sessions</title></rect>
    <rect x="477" y="69" width="11" height="11" rx="2" fill="#161b22"><title>2025-11-06: 0 sessions</title></rect>
    <rect x="477" y="82" width="11" height="11" rx="2" fill="#161b22"><title>2025-11-07: 0 sessions</title></rect>
    <rect x="477" y="95" width="11" height="11" rx="2" fill="#161b22"><title>2025-11-08: 0 sessions</title></rect>
    <rect x="477" y="108" width="11" height="11" rx="2" fill="#161b22"><title>2025-11-09: 0 sessions</title></rect>
    <rect x="490" y="30" width="11" height="11" rx="2" fill="#161b22"><title>2025-11-10: 0 sessions</title></rect>
    <rect x="490" y="43" width="11" height="11" rx="2" fill="#161b22"><title>2025-11-11: 0 sessions</title></rect>
    <rect x="490" y="56" width="11" height="11" rx="2" fill="#161b22"><title>2025-11-12: 0 sessions</title></rect>
    <rect x="490" y="69" width="11" height="11" rx="2" fill="#161b22"><title>2025-11-13: 0 sessions</title></rect>
    <rect x="490" y="82" width="11" height="11" rx="2" fill="#161b22"><title>2025-11-14: 0 sessions</title></rect>
    <rect x="490" y="95" width="11" height="11" rx="2" fill="#161b22"><title>2025-11-15: 0 sessions</title></rect>
    <rect x="490" y="108" width="11" height="11" rx="2" fill="#161b22"><title>2025-11-16: 0 sessions</title></rect>
    <rect x="503" y="30" width="11" height="11" rx="2" fill="#161b22"><title>2025-11-17: 0 sessions</title></rect>
    <rect x="503" y="43" width="11" height="11" rx="2" fill="#161b22"><title>2025-11-18: 0 sessions</title></rect>
    <rect x="503" y="56" width="11" height="11" rx="2" fill="#161b22"><title>2025-11-19: 0 sessions</title></rect>
    <rect x="503" y="69" width="11" height="11" rx="2" fill="#161b22"><title>2025-11-20: 0 sessions</title></rect>
    <rect x="503" y="82" width="11" height="11" rx="2" fill="#161b22"><title>2025-11-21: 0 sessions</title></rect>
    <rect x="503" y="95" width="11" height="11" rx="2" fill="#161b22"><title>2025-11-22: 0 sessions</title></rect>
    <rect x="503" y="108" width="11" height="11" rx="2" fill="#161b22"><title>2025-11-23: 0 sessions</title></rect>
    <rect x="516" y="30" width="11" height="11" rx="2" fill="#161b22"><title>2025-11-24: 0 sessions</title></rect>
    <rect x="516" y="43" width="11" height="11" rx="2" fill="#161b22"><title>2025-11-25: 0 sessions</title></rect>
    <rect x="516" y="56" width="11" height="11" rx="2" fill="#161b22"><title>2025-11-26: 0 sessions</title></rect>
    <rect x="516" y="69" width="11" height="11" rx="2" fill="#161b22"><title>2025-11-27: 0 sessions</title></rect>
    <rect x="516" y="82" width="11" height="11" rx="2" fill="#161b22"><title>2025-11-28: 0 sessions</title></rect>
    <rect x="516" y="95" width="11" height="11" rx="2" fill="#161b22"><title>2025-11-29: 0 sessions</title></rect>
    <rect x="516" y="108" width="11" height="11" rx="2" fill="#161b22"><title>2025-11-30: 0 sessions</title></rect>
    <rect x="529" y="30" width="11" height="11" rx="2" fill="#161b22"><title>2025-12-01: 0 sessions</title></rect>
    <rect x="529" y="43" width="11" height="11" rx="2" fill="#161b22"><title>2025-12-02: 0 sessions</title></rect>
    <rect x="529" y="56" width="11" height="11" rx="2" fill="#161b22"><title>2025-12-03: 0 sessions</title></rect>
    <rect x="529" y="69" width="11" height="11" rx="2" fill="#161b22"><title>2025-12-04: 0 sessions</title></rect>
    <rect x="529" y="82" width="11" height="11" rx="2" fill="#161b22"><title>2025-12-05: 0 sessions</title></rect>
    <rect x="529" y="95" width="11" height="11" rx="2" fill="#161b22"><title>2025-12-06: 0 sessions</title></rect>
    <rect x="529" y="108" width="11" height="11" rx="2" fill="#161b22"><title>2025-12-07: 0 sessions</title></rect>
    <rect x="542" y="30" width="11" height="11" rx="2" fill="#161b22"><title>2025-12-08: 0 sessions</title></rect>
    <rect x="542" y="43" width="11" height="11" rx="2" fill="#161b22"><title>2025-12-09: 0 sessions</title></rect>
    <rect x="542" y="56" width="11" height="11" rx="2" fill="#161b22"><title>2025-12-10: 0 sessions</title></rect>
    <rect x="542" y="69" width="11" height="11" rx="2" fill="#161b22"><title>2025-12-11: 0 sessions</title></rect>
    <rect x="542" y="82" width="11" height="11" rx="2" fill="#161b22"><title>2025-12-12: 0 sessions</title></rect>
    <rect x="542" y="95" width="11" height="11" rx="2" fill="#161b22"><title>2025-12-13: 0 sessions</title></rect>
    <rect x="542" y="108" width="11" height="11" rx="2" fill="#161b22"><title>2025-12-14: 0 sessions</title></rect>
    <rect x="555" y="30" width="11" height="11" rx="2" fill="#161b22"><title>2025-12-15: 0 sessions</title></rect>
    <rect x="555" y="43" width="11" height="11" rx="2" fill="#161b22"><title>2025-12-16: 0 sessions</title></rect>
    <rect x="555" y="56" width="11" height="11" rx="2" fill="#161b22"><title>2025-12-17: 0 sessions</title></rect>
    <rect x="555" y="69" width="11" height="11" rx="2" fill="#161b22"><title>2025-12-18: 0 sessions</title></rect>
    <rect x="555" y="82" width="11" height="11" rx="2" fill="#161b22"><title>2025-12-19: 0 sessions</title></rect>
    <rect x="555" y="95" width="11" height="11" rx="2" fill="#161b22"><title>2025-12-20: 0 sessions</title></rect>
    <rect x="555" y="108" width="11" height="11" rx="2" fill="#161b22"><title>2025-12-21: 0 sessions</title></rect>
    <rect x="568" y="30" width="11" height="11" rx="2" fill="#161b22"><title>2025-12-22: 0 sessions</title></rect>
    <rect x="568" y="43" width="11" height="11" rx="2" fill="#161b22"><title>2025-12-23: 0 sessions</title></rect>
    <rect x="568" y="56" width="11" height="11" rx="2" fill="#161b22"><title>2025-12-24: 0 sessions</title></rect>
    <rect x="568" y="69" width="11" height="11" rx="2" fill="#161b22"><title>2025-12-25: 0 sessions</title></rect>
    <rect x="568" y="82" width="11" height="11" rx="2" fill="#161b22"><title>2025-12-26: 0 sessions</title></rect>
    <rect x="568" y="95" width="11" height="11" rx="2" fill="#161b22"><title>2025-12-27: 0 sessions</title></rect>
    <rect x="568" y="108" width="11" height="11" rx="2" fill="#161b22"><title>2025-12-28: 0 sessions</title></rect>
    <rect x="581" y="30" width="11" height="11" rx="2" fill="#161b22"><title>2025-12-29: 0 sessions</title></rect>
    <rect x="581" y="43" width="11" height="11" rx="2" fill="#161b22"><title>2025-12-30: 0 sessions</title></rect>
    <rect x="581" y="56" width="11" height="11" rx="2" fill="#161b22"><title>2025-12-31: 0 sessions</title></rect>
    <rect x="581" y="69" width="11" height="11" rx="2" fill="#161b22"><title>2026-01-01: 0 sessions</title></rect>
    <rect x="581" y="82" width="11" height="11" rx="2" fill="#161b22"><title>2026-01-02: 0 sessions</title></rect>
    <rect x="581" y="95" width="11" height="11" rx="2" fill="#161b22"><title>2026-01-03: 0 sessions</title></rect>
    <rect x="581" y="108" width="11" height="11" rx="2" fill="#161b22"><title>2026-01-04: 0 sessions</title></rect>
    <rect x="594" y="30" width="11" height="11" rx="2" fill="#161b22"><title>2026-01-05: 0 sessions</title></rect>
    <rect x="594" y="43" width="11" height="11" rx="2" fill="#161b22"><title>2026-01-06: 0 sessions</title></rect>
    <rect x="594" y="56" width="11" height="11" rx="2" fill="#161b22"><title>2026-01-07: 0 sessions</title></rect>
    <rect x="594" y="69" width="11" height="11" rx="2" fill="#161b22"><title>2026-01-08: 0 sessions</title></rect>
    <rect x="594" y="82" width="11" height="11" rx="2" fill="#161b22"><title>2026-01-09: 0 sessions</title></rect>
    <rect x="594" y="95" width="11" height="11" rx="2" fill="#161b22"><title>2026-01-10: 0 sessions</title></rect>
    <rect x="594" y="108" width="11" height="11" rx="2" fill="#161b22"><title>2026-01-11: 0 sessions</title></rect>
    <rect x="607" y="30" width="11" height="11" rx="2" fill="#161b22"><title>2026-01-12: 0 sessions</title></rect>
    <rect x="607" y="43" width="11" height="11" rx="2" fill="#161b22"><title>2026-01-13: 0 sessions</title></rect>
    <rect x="607" y="56" width="11" height="11" rx="2" fill="#161b22"><title>2026-01-14: 0 sessions</title></rect>
    <rect x="607" y="69" width="11" height="11" rx="2" fill="#161b22"><title>2026-01-15: 0 sessions</title></rect>
    <rect x="607" y="82" width="11" height="11" rx="2" fill="#161b22"><title>2026-01-16: 0 sessions</title></rect>
    <rect x="607" y="95" width="11" height="11" rx="2" fill="#161b22"><title>2026-01-17: 0 sessions</title></rect>
    <rect x="607" y="108" width="11" height="11" rx="2" fill="#161b22"><title>2026-01-18: 0 sessions</title></rect>
    <rect x="620" y="30" width="11" height="11" rx="2" fill="#161b22"><title>2026-01-19: 0 sessions</title></rect>
    <rect x="620" y="43" width="11" height="11" rx="2" fill="#161b22"><title>2026-01-20: 0 sessions</title></rect>
    <rect x="620" y="56" width="11" height="11" rx="2" fill="#161b22"><title>2026-01-21: 0 sessions</title></rect>
    <rect x="620" y="69" width="11" height="11" rx="2" fill="#161b22"><title>2026-01-22: 0 sessions</title></rect>
    <rect x="620" y="82" width="11" height="11" rx="2" fill="#161b22"><title>2026-01-23: 0 sessions</title></rect>
    <rect x="620" y="95" width="11" height="11" rx="2" fill="#161b22"><title>2026-01-24: 0 sessions</title></rect>
    <rect x="620" y="108" width="11" height="11" rx="2" fill="#161b22"><title>2026-01-25: 0 sessions</title></rect>
    <rect x="633" y="30" width="11" height="11" rx="2" fill="#161b22"><title>2026-01-26: 0 sessions</title></rect>
    <rect x="633" y="43" width="11" height="11" rx="2" fill="#161b22"><title>2026-01-27: 0 sessions</title></rect>
    <rect x="633" y="56" width="11" height="11" rx="2" fill="#161b22"><title>2026-01-28: 0 sessions</title></rect>
    <rect x="633" y="69" width="11" height="11" rx="2" fill="#161b22"><title>2026-01-29: 0 sessions</title></rect>
    <rect x="633" y="82" width="11" height="11" rx="2" fill="#161b22"><title>2026-01-30: 0 sessions</title></rect>
    <rect x="633" y="95" width="11" height="11" rx="2" fill="#161b22"><title>2026-01-31: 0 sessions</title></rect>
    <rect x="633" y="108" width="11" height="11" rx="2" fill="#161b22"><title>2026-02-01: 0 sessions</title></rect>
    <rect x="646" y="30" width="11" height="11" rx="2" fill="#161b22"><title>2026-02-02: 0 sessions</title></rect>
    <rect x="646" y="43" width="11" height="11" rx="2" fill="#161b22"><title>2026-02-03: 0 sessions</title></rect>
    <rect x="646" y="56" width="11" height="11" rx="2" fill="#161b22"><title>2026-02-04: 0 sessions</title></rect>
    <rect x="646" y="69" width="11" height="11" rx="2" fill="#161b22"><title>2026-02-05: 0 sessions</title></rect>
    <rect x="646" y="82" width="11" height="11" rx="2" fill="#161b22"><title>2026-02-06: 0 sessions</title></rect>
    <rect x="646" y="95" width="11" height="11" rx="2" fill="#161b22"><title>2026-02-07: 0 sessions</title></rect>
    <rect x="646" y="108" width="11" height="11" rx="2" fill="#161b22"><title>2026-02-08: 0 sessions</title></rect>
    <rect x="659" y="30" width="11" height="11" rx="2" fill="#161b22"><title>2026-02-09: 0 sessions</title></rect>
    <rect x="659" y="43" width="11" height="11" rx="2" fill="#161b22"><title>2026-02-10: 0 sessions</title></rect>
    <rect x="659" y="56" width="11" height="11" rx="2" fill="#161b22"><title>2026-02-11: 0 sessions</title></rect>
    <rect x="659" y="69" width="11" height="11" rx="2" fill="#161b22"><title>2026-02-12: 0 sessions</title></rect>
    <rect x="659" y="82" width="11" height="11" rx="2" fill="#161b22"><title>2026-02-13: 0 sessions</title></rect>
    <rect x="659" y="95" width="11" height="11" rx="2" fill="#161b22"><title>2026-02-14: 0 sessions</title></rect>
    <rect x="659" y="108" width="11" height="11" rx="2" fill="#161b22"><title>2026-02-15: 0 sessions</title></rect>
    <rect x="672" y="30" width="11" height="11" rx="2" fill="#161b22"><title>2026-02-16: 0 sessions</title></rect>
    <rect x="672" y="43" width="11" height="11" rx="2" fill="#161b22"><title>2026-02-17: 0 sessions</title></rect>
    <rect x="672" y="56" width="11" height="11" rx="2" fill="#161b22"><title>2026-02-18: 0 sessions</title></rect>
    <rect x="672" y="69" width="11" height="11" rx="2" fill="#161b22"><title>2026-02-19: 0 sessions</title></rect>
    <rect x="672" y="82" width="11" height="11" rx="2" fill="#161b22"><title>2026-02-20: 0 sessions</title></rect>
    <rect x="672" y="95" width="11" height="11" rx="2" fill="#161b22"><title>2026-02-21: 0 sessions</title></rect>
    <rect x="672" y="108" width="11" height="11" rx="2" fill="#161b22"><title>2026-02-22: 0 sessions</title></rect>
    <rect x="685" y="30" width="11" height="11" rx="2" fill="#161b22"><title>2026-02-23: 0 sessions</title></rect>
    <rect x="685" y="43" width="11" height="11" rx="2" fill="#161b22"><title>2026-02-24: 0 sessions</title></rect>
    <rect x="685" y="56" width="11" height="11" rx="2" fill="#161b22"><title>2026-02-25: 0 sessions</title></rect>
    <rect x="685" y="69" width="11" height="11" rx="2" fill="#161b22"><title>2026-02-26: 0 sessions</title></rect>
    <rect x="685" y="82" width="11" height="11" rx="2" fill="#161b22"><title>2026-02-27: 0 sessions</title></rect>
    <rect x="685" y="95" width="11" height="11" rx="2" fill="#161b22"><title>2026-02-28: 0 sessions</title></rect>
    <rect x="685" y="108" width="11" height="11" rx="2" fill="#161b22"><title>2026-03-01: 0 sessions</title></rect>
    <rect x="698" y="30" width="11" height="11" rx="2" fill="#161b22"><title>2026-03-02: 0 sessions</title></rect>
    <rect x="698" y="43" width="11" height="11" rx="2" fill="#161b22"><title>2026-03-03: 0 sessions</title></rect>
    <rect x="698" y="56" width="11" height="11" rx="2" fill="#161b22"><title>2026-03-04: 0 sessions</title></rect>
    <rect x="698" y="69" width="11" height="11" rx="2" fill="#161b22"><title>2026-03-05: 0 sessions</title></rect>
    <rect x="698" y="82" width="11" height="11" rx="2" fill="#161b22"><title>2026-03-06: 0 sessions</title></rect>
    <rect x="698" y="95" width="11" height="11" rx="2" fill="#161b22"><title>2026-03-07: 0 sessions</title></rect>
    <rect x="698" y="108" width="11" height="11" rx="2" fill="#161b22"><title>2026-03-08: 0 sessions</title></rect>
    <rect x="711" y="30" width="11" height="11" rx="2" fill="#161b22"><title>2026-03-09: 0 sessions</title></rect>
    <text x="589" y="142" fill="#8b949e" font-size="9">Less</text>
    <rect x="619" y="133" width="11" height="11" rx="2" fill="#161b22"/>
    <rect x="634" y="133" width="11" height="11" rx="2" fill="#0e4429"/>
    <rect x="649" y="133" width="11" height="11" rx="2" fill="#006d32"/>
    <rect x="664" y="133" width="11" height="11" rx="2" fill="#26a641"/>
    <rect x="679" y="133" width="11" height="11" rx="2" fill="#39d353"/>
    <text x="699" y="142" fill="#8b949e" font-size="9">More</text>
  </g>
</svg>